<?xml version="1.0" encoding="utf-8"?>
<!-- Generator: Adobe Illustrator 16.0.4, SVG Export Plug-In . SVG Version: 6.00 Build 0)  -->
<!DOCTYPE svg PUBLIC "-//W3C//DTD SVG 1.1//EN" "http://www.w3.org/Graphics/SVG/1.1/DTD/svg11.dtd">
<svg version="1.1" id="Layer_1" xmlns="http://www.w3.org/2000/svg" xmlns:xlink="http://www.w3.org/1999/xlink" x="0px" y="0px"
	 width="500px" height="500px" viewBox="0 0 500 500" enable-background="new 0 0 500 500" xml:space="preserve">
<g>
	<path fill="#00A551" d="M250,466c-57.696,0-111.938-22.468-152.735-63.265C56.468,361.938,34,307.695,34,250
		c0-57.696,22.468-111.938,63.265-152.735C138.062,56.468,192.304,34,250,34c57.695,0,111.938,22.468,152.735,63.265
		C443.532,138.062,466,192.304,466,250c0,57.695-22.468,111.938-63.265,152.735C361.938,443.532,307.695,466,250,466z"/>
	<path fill="#006838" d="M250,44c27.818,0,54.795,5.444,80.18,16.18c24.526,10.375,46.562,25.231,65.484,44.156
		c18.925,18.925,33.781,40.958,44.155,65.486C450.557,195.206,456,222.181,456,250c0,27.818-5.443,54.795-16.181,80.18
		c-10.374,24.526-25.23,46.562-44.155,65.484s-40.958,33.781-65.484,44.155C304.795,450.557,277.818,456,250,456
		c-27.819,0-54.794-5.443-80.179-16.181c-24.528-10.374-46.56-25.23-65.485-44.155c-18.925-18.925-33.781-40.958-44.156-65.484
		C49.444,304.795,44,277.818,44,250c0-27.819,5.444-54.794,16.18-80.178c10.375-24.528,25.231-46.562,44.156-65.486
		c18.925-18.924,40.958-33.781,65.485-44.156C195.206,49.444,222.181,44,250,44 M250,24C125.184,24,24,125.184,24,250
		c0,124.816,101.184,226,226,226c124.816,0,226-101.184,226-226C476,125.184,374.816,24,250,24L250,24z"/>
</g>
<g>
	<g>
		<path fill="#EC1C24" d="M67.619,216.447c0-3.431,0.836-6.642,2.488-9.555c0.962-2.414,4.579-9.368,15.549-13.813
			c15.284-6.192,38.131-4.95,67.911,3.693l0.286,0.083l0.274,0.113c0.413,0.17,42.437,17.014,85.049-1.621l0.492-0.215l0.524-0.114
			c1.126-0.245,27.957-5.98,58.542-4.483c41.487,2.029,69.664,16.674,81.518,42.353c1.204,1.905,4.734,8.431,4.734,19.366
			c0,0.639-0.013,1.283-0.036,1.934c13.994,2.508,41.056,4.567,51.625-7.005l5.594-6.124l7.797,17.829l-1.173,2.278
			c-1.306,2.535-14.235,24.106-72.501,17.812c-3.872,8.547-15.129,28.166-41.018,41.021c-34.948,17.353-82.198,15.729-140.441-4.817
			l-0.123-0.046l-0.121-0.048c-3.119-1.275-76.567-31.525-107.952-66.812C83.562,245.652,67.62,231.342,67.619,216.447z"/>
		<path fill="#006838" d="M444.001,258.697c0,0-11.328,21.992-71.166,14.447c0,0-28.521,89.057-176.21,36.948
			c0,0-75.46-30.812-106.215-65.688c0,0-17.401-14.491-17.401-27.959c0-2.481,0.59-4.927,1.989-7.242c0,0,8.132-27.262,77.067-7.257
			c0,0,43.905,18.174,89.269-1.663c0,0,107.63-23.385,134.188,35.218c0,0,4.074,5.693,4.074,16.751c0,1.925-0.123,4.008-0.414,6.256
			c0,0,44.727,10.532,61.371-7.692L444.001,258.697 M455.931,259.074l-2.055-4.697l-3.446-7.881l-6.646-15.197l-11.188,12.247
			c-7.583,8.302-28.09,8.027-42.282,6.046c-0.492-10.17-3.713-16.646-5.31-19.269c-30.301-64.875-141.231-41.6-145.956-40.574
			L238,189.976l-0.983,0.43c-40.688,17.793-80.43,1.744-80.827,1.58l-0.548-0.226l-0.57-0.165
			c-30.97-8.988-55.004-10.17-71.435-3.512c-12.291,4.98-16.874,12.863-18.391,16.466c-1.999,3.646-3.013,7.643-3.013,11.897
			c0,8.142,3.75,16.844,11.144,25.864c3.981,4.856,7.89,8.426,9.463,9.799c32.338,36.101,106.552,66.673,109.712,67.964l0.244,0.099
			l0.247,0.089c32.118,11.33,61.418,17.04,87.088,16.968c21.725-0.061,41.084-4.234,57.542-12.406
			c24.179-12.006,36.392-29.768,41.794-40.113c23.093,2.102,41.819,0.057,55.75-6.1c13.129-5.801,17.605-13.494,18.37-14.978
			L455.931,259.074L455.931,259.074z"/>
	</g>
	<path fill="#00A551" d="M366.335,285.834c4.773-7.32,6.5-12.688,6.5-12.688c59.839,7.543,71.166-14.448,71.166-14.448l-3.446-7.882
		c-16.646,18.224-61.371,7.69-61.371,7.69c1.953-15.16-3.662-23.005-3.662-23.005C361.469,255.232,366.331,285.809,366.335,285.834z
		"/>
</g>
</svg>
